<svg width="300" height="300" xmlns="http://www.w3.org/2000/svg"><path d="M175.862 263.793v20.69c0 8.555-6.962 15.517-15.517 15.517H15.517C6.962 300 0 293.038 0 284.483v-20.69h175.862zm103.448 20.69v10.345h-93.103v-10.345h93.103zm20.69 0v10.345h-10.345v-10.345H300zm-186.207-10.345H62.07v10.345h51.724v-10.345zM300 263.793v10.345h-93.103v-10.345H300zm-103.448 0v10.345h-10.345v-10.345h10.345zM175.862 41.38v36.207h-5.172c-8.556 0-15.518 6.962-15.518 15.517v82.76c0 8.56 6.962 15.516 15.518 15.516h5.172v62.07H0V41.378h175.862zM279.31 243.103v10.345h-93.103v-10.345h93.103zm20.69 0v10.345h-10.345v-10.345H300zM87.931 82.76c-31.37 0-56.897 25.525-56.897 56.896 0 14.648 5.494 28.417 15.518 39.02v33.394h82.758v-33.393c10.024-10.604 15.518-24.373 15.518-39.02 0-31.372-25.526-56.897-56.897-56.897zm206.897 5.172A5.174 5.174 0 01300 93.103v82.76a5.174 5.174 0 01-5.172 5.171h-35.721l-36.693 30.383v-30.383H170.69a5.174 5.174 0 01-5.173-5.172V93.103a5.174 5.174 0 015.173-5.172zM87.93 93.103c25.67 0 46.552 20.881 46.552 46.552 0 12.585-4.96 24.383-13.966 33.217l-1.551 1.521v27.331H108.62v-25.862H98.276v25.862h-20.69v-25.862H67.241v25.862H56.897v-27.33l-1.552-1.522c-9.005-8.834-13.966-20.632-13.966-33.217 0-25.67 20.881-46.552 46.552-46.552zm150 5.173h-10.345v5.436c-8.752 1.267-15.517 8.747-15.517 17.84 0 9.982 8.12 18.103 18.103 18.103h5.173c4.277 0 7.758 3.481 7.758 7.759 0 4.277-3.48 7.758-7.758 7.758h-5.173c-4.277 0-7.758-3.48-7.758-7.758v-2.586h-10.345v2.586c0 9.093 6.765 16.572 15.517 17.84v5.436h10.345v-5.437c8.752-1.267 15.517-8.746 15.517-17.84 0-9.982-8.12-18.103-18.103-18.103h-5.173c-4.277 0-7.758-3.48-7.758-7.758 0-4.278 3.48-7.759 7.758-7.759h5.173c4.277 0 7.758 3.481 7.758 7.759v2.586h10.345v-2.586c0-9.093-6.765-16.573-15.517-17.84v-5.436zM53.876 116.845l-3.87 11.607c-2.59 7.774-.6 16.2 5.194 21.993a16.251 16.251 0 0011.416 4.727c8.901 0 16.143-7.241 16.143-16.143v-7.743l-28.883-14.441zm65.286 0L90.28 131.286v7.743c0 8.902 7.242 16.143 16.149 16.143 4.303 0 8.358-1.675 11.415-4.727 5.793-5.793 7.78-14.22 5.188-21.993l-3.869-11.607zM59.917 131.43l12.497 6.248v1.35a5.806 5.806 0 01-5.798 5.799 5.859 5.859 0 01-4.107-1.697 11.093 11.093 0 01-2.695-11.405l.103-.295zm53.204 0l.103.295c1.34 4.03.31 8.4-2.69 11.4a5.807 5.807 0 01-9.91-4.097v-1.35l12.497-6.248zm166.19-79.707V62.07h-93.104V51.724h93.103zm20.689 0V62.07h-10.345V51.724H300zm0-20.69V41.38h-93.103V31.034H300zm-103.448 0V41.38h-10.345V31.034h10.345zM160.345 0c8.555 0 15.517 6.962 15.517 15.517v15.517H0V15.517C0 6.962 6.962 0 15.517 0zM279.31 10.345V20.69h-93.103V10.345h93.103zm20.69 0V20.69h-10.345V10.345H300z" fill="#FFF" fill-rule="nonzero"/></svg>
